HIERARCHY
ROOT mixamorig:Hips
{
	OFFSET -0.000008 104.274872 1.554316
	CHANNELS 6 Xposition Yposition Zposition Xrotation Yrotation Zrotation
	JOINT mixamorig:Spine
	{
		OFFSET -0.000005 10.181595 0.131519
		CHANNELS 6 Xposition Yposition Zposition Xrotation Yrotation Zrotation
		JOINT mixamorig:Spine1
		{
			OFFSET -0.000000 9.893959 -1.470707
			CHANNELS 6 Xposition Yposition Zposition Xrotation Yrotation Zrotation
			JOINT mixamorig:Spine2
			{
				OFFSET -0.000000 9.220757 -1.370641
				CHANNELS 6 Xposition Yposition Zposition Xrotation Yrotation Zrotation
				JOINT mixamorig:Neck
				{
					OFFSET 0.000001 16.740417 -2.049036
					CHANNELS 6 Xposition Yposition Zposition Xrotation Yrotation Zrotation
					JOINT mixamorig:Head
					{
						OFFSET 0.000000 9.617874 1.685006
						CHANNELS 6 Xposition Yposition Zposition Xrotation Yrotation Zrotation
						JOINT mixamorig:HeadTop_End
						{
							OFFSET 0.000002 22.037354 7.501101
							CHANNELS 6 Xposition Yposition Zposition Xrotation Yrotation Zrotation
							End Site
							{
								OFFSET 0.000168 2310.654297 -282.823242
							}
						}
					}
				}
				JOINT mixamorig:RightShoulder
				{
					OFFSET -4.569970 11.014908 -2.160885
					CHANNELS 6 Xposition Yposition Zposition Xrotation Yrotation Zrotation
					JOINT mixamorig:RightArm
					{
						OFFSET -10.592851 -0.524811 -2.232101
						CHANNELS 6 Xposition Yposition Zposition Xrotation Yrotation Zrotation
						JOINT mixamorig:RightForeArm
						{
							OFFSET -27.841511 0.000031 -0.000004
							CHANNELS 6 Xposition Yposition Zposition Xrotation Yrotation Zrotation
							JOINT mixamorig:RightHand
							{
								OFFSET -28.328831 -0.000015 0.000015
								CHANNELS 6 Xposition Yposition Zposition Xrotation Yrotation Zrotation
								JOINT mixamorig:RightHandThumb1
								{
									OFFSET -2.464806 -1.573990 2.681852
									CHANNELS 6 Xposition Yposition Zposition Xrotation Yrotation Zrotation
									JOINT mixamorig:RightHandThumb2
									{
										OFFSET -3.215179 -1.872803 1.924282
										CHANNELS 6 Xposition Yposition Zposition Xrotation Yrotation Zrotation
										JOINT mixamorig:RightHandThumb3
										{
											OFFSET -2.654831 -1.527969 1.512609
											CHANNELS 6 Xposition Yposition Zposition Xrotation Yrotation Zrotation
											JOINT mixamorig:RightHandThumb4
											{
												OFFSET -2.018814 -1.152008 1.108052
												CHANNELS 6 Xposition Yposition Zposition Xrotation Yrotation Zrotation
												End Site
												{
													OFFSET -188.809540 -114.533607 132.431396
												}
											}
										}
									}
								}
								JOINT mixamorig:RightHandIndex1
								{
									OFFSET -9.108284 -0.517868 2.259835
									CHANNELS 6 Xposition Yposition Zposition Xrotation Yrotation Zrotation
									JOINT mixamorig:RightHandIndex2
									{
										OFFSET -3.699989 0.000000 0.001215
										CHANNELS 6 Xposition Yposition Zposition Xrotation Yrotation Zrotation
										JOINT mixamorig:RightHandIndex3
										{
											OFFSET -2.850006 0.000031 -0.000522
											CHANNELS 6 Xposition Yposition Zposition Xrotation Yrotation Zrotation
											JOINT mixamorig:RightHandIndex4
											{
												OFFSET -2.772186 -0.000015 -0.000020
												CHANNELS 6 Xposition Yposition Zposition Xrotation Yrotation Zrotation
												End Site
												{
													OFFSET -277.218445 0.000000 -0.050231
												}
											}
										}
									}
								}
								JOINT mixamorig:RightHandMiddle1
								{
									OFFSET -9.532516 -0.000031 -0.000023
									CHANNELS 6 Xposition Yposition Zposition Xrotation Yrotation Zrotation
									JOINT mixamorig:RightHandMiddle2
									{
										OFFSET -3.700005 -0.000015 0.003713
										CHANNELS 6 Xposition Yposition Zposition Xrotation Yrotation Zrotation
										JOINT mixamorig:RightHandMiddle3
										{
											OFFSET -2.949974 0.000015 -0.002054
											CHANNELS 6 Xposition Yposition Zposition Xrotation Yrotation Zrotation
											JOINT mixamorig:RightHandMiddle4
											{
												OFFSET -2.946640 0.000000 -0.000156
												CHANNELS 6 Xposition Yposition Zposition Xrotation Yrotation Zrotation
												End Site
												{
													OFFSET -294.664337 0.000000 -0.113670
												}
											}
										}
									}
								}
								JOINT mixamorig:RightHandRing1
								{
									OFFSET -9.103600 -0.043076 -1.865134
									CHANNELS 6 Xposition Yposition Zposition Xrotation Yrotation Zrotation
									JOINT mixamorig:RightHandRing2
									{
										OFFSET -3.379288 0.000000 -0.001055
										CHANNELS 6 Xposition Yposition Zposition Xrotation Yrotation Zrotation
										JOINT mixamorig:RightHandRing3
										{
											OFFSET -2.889687 -0.000015 0.000379
											CHANNELS 6 Xposition Yposition Zposition Xrotation Yrotation Zrotation
											JOINT mixamorig:RightHandRing4
											{
												OFFSET -2.638809 -0.000015 0.000941
												CHANNELS 6 Xposition Yposition Zposition Xrotation Yrotation Zrotation
												End Site
												{
													OFFSET -263.880371 0.000000 0.516020
												}
											}
										}
									}
								}
								JOINT mixamorig:RightHandPinky1
								{
									OFFSET -8.076683 -0.486710 -3.806280
									CHANNELS 6 Xposition Yposition Zposition Xrotation Yrotation Zrotation
									JOINT mixamorig:RightHandPinky2
									{
										OFFSET -3.600014 -0.000015 -0.003747
										CHANNELS 6 Xposition Yposition Zposition Xrotation Yrotation Zrotation
										JOINT mixamorig:RightHandPinky3
										{
											OFFSET -2.099983 0.000000 -0.005739
											CHANNELS 6 Xposition Yposition Zposition Xrotation Yrotation Zrotation
											JOINT mixamorig:RightHandPinky4
											{
												OFFSET -2.115768 -0.000031 -0.003680
												CHANNELS 6 Xposition Yposition Zposition Xrotation Yrotation Zrotation
												End Site
												{
													OFFSET -211.577087 0.000000 -0.350686
												}
											}
										}
									}
								}
							}
						}
					}
				}
				JOINT mixamorig:LeftShoulder
				{
					OFFSET 4.570447 11.014725 -2.160855
					CHANNELS 6 Xposition Yposition Zposition Xrotation Yrotation Zrotation
					JOINT mixamorig:LeftArm
					{
						OFFSET 10.592371 -0.524597 -2.232119
						CHANNELS 6 Xposition Yposition Zposition Xrotation Yrotation Zrotation
						JOINT mixamorig:LeftForeArm
						{
							OFFSET 27.841532 -0.000031 0.000026
							CHANNELS 6 Xposition Yposition Zposition Xrotation Yrotation Zrotation
							JOINT mixamorig:LeftHand
							{
								OFFSET 28.328846 -0.000061 0.000022
								CHANNELS 6 Xposition Yposition Zposition Xrotation Yrotation Zrotation
								JOINT mixamorig:LeftHandThumb1
								{
									OFFSET 2.466141 -1.576172 2.681732
									CHANNELS 6 Xposition Yposition Zposition Xrotation Yrotation Zrotation
									JOINT mixamorig:LeftHandThumb2
									{
										OFFSET 3.217812 -1.872070 1.916482
										CHANNELS 6 Xposition Yposition Zposition Xrotation Yrotation Zrotation
										JOINT mixamorig:LeftHandThumb3
										{
											OFFSET 2.656029 -1.528778 1.514513
											CHANNELS 6 Xposition Yposition Zposition Xrotation Yrotation Zrotation
											JOINT mixamorig:LeftHandThumb4
											{
												OFFSET 2.020889 -1.154053 1.115139
												CHANNELS 6 Xposition Yposition Zposition Xrotation Yrotation Zrotation
												End Site
												{
													OFFSET 190.885437 -115.081749 130.048782
												}
											}
										}
									}
								}
								JOINT mixamorig:LeftHandIndex1
								{
									OFFSET 9.109314 -0.518021 2.259871
									CHANNELS 6 Xposition Yposition Zposition Xrotation Yrotation Zrotation
									JOINT mixamorig:LeftHandIndex2
									{
										OFFSET 3.699989 0.000000 -0.000322
										CHANNELS 6 Xposition Yposition Zposition Xrotation Yrotation Zrotation
										JOINT mixamorig:LeftHandIndex3
										{
											OFFSET 2.850006 0.000000 0.000352
											CHANNELS 6 Xposition Yposition Zposition Xrotation Yrotation Zrotation
											JOINT mixamorig:LeftHandIndex4
											{
												OFFSET 2.774864 -0.000031 -0.000027
												CHANNELS 6 Xposition Yposition Zposition Xrotation Yrotation Zrotation
												End Site
												{
													OFFSET 277.486267 0.000000 -0.009857
												}
											}
										}
									}
								}
								JOINT mixamorig:LeftHandMiddle1
								{
									OFFSET 9.533394 0.000061 0.000044
									CHANNELS 6 Xposition Yposition Zposition Xrotation Yrotation Zrotation
									JOINT mixamorig:LeftHandMiddle2
									{
										OFFSET 3.699989 -0.000015 -0.000231
										CHANNELS 6 Xposition Yposition Zposition Xrotation Yrotation Zrotation
										JOINT mixamorig:LeftHandMiddle3
										{
											OFFSET 2.949997 -0.000015 -0.000059
											CHANNELS 6 Xposition Yposition Zposition Xrotation Yrotation Zrotation
											JOINT mixamorig:LeftHandMiddle4
											{
												OFFSET 2.952896 0.000031 0.000063
												CHANNELS 6 Xposition Yposition Zposition Xrotation Yrotation Zrotation
												End Site
												{
													OFFSET 295.289337 0.000000 0.022810
												}
											}
										}
									}
								}
								JOINT mixamorig:LeftHandRing1
								{
									OFFSET 9.104523 -0.042999 -1.865074
									CHANNELS 6 Xposition Yposition Zposition Xrotation Yrotation Zrotation
									JOINT mixamorig:LeftHandRing2
									{
										OFFSET 3.150009 -0.000031 0.000043
										CHANNELS 6 Xposition Yposition Zposition Xrotation Yrotation Zrotation
										JOINT mixamorig:LeftHandRing3
										{
											OFFSET 2.949982 -0.000015 0.000040
											CHANNELS 6 Xposition Yposition Zposition Xrotation Yrotation Zrotation
											JOINT mixamorig:LeftHandRing4
											{
												OFFSET 2.644348 0.000000 0.000057
												CHANNELS 6 Xposition Yposition Zposition Xrotation Yrotation Zrotation
												End Site
												{
													OFFSET 264.434631 0.000000 0.012105
												}
											}
										}
									}
								}
								JOINT mixamorig:LeftHandPinky1
								{
									OFFSET 8.077789 -0.486847 -3.806259
									CHANNELS 6 Xposition Yposition Zposition Xrotation Yrotation Zrotation
									JOINT mixamorig:LeftHandPinky2
									{
										OFFSET 3.599953 0.000031 0.014727
										CHANNELS 6 Xposition Yposition Zposition Xrotation Yrotation Zrotation
										JOINT mixamorig:LeftHandPinky3
										{
											OFFSET 2.100021 0.000015 0.007705
											CHANNELS 6 Xposition Yposition Zposition Xrotation Yrotation Zrotation
											JOINT mixamorig:LeftHandPinky4
											{
												OFFSET 2.125504 0.000031 0.007517
												CHANNELS 6 Xposition Yposition Zposition Xrotation Yrotation Zrotation
												End Site
												{
													OFFSET 212.550781 0.000000 0.625752
												}
											}
										}
									}
								}
							}
						}
					}
				}
			}
		}
	}
	JOINT mixamorig:RightUpLeg
	{
		OFFSET -8.207787 -6.751648 -1.599560
		CHANNELS 6 Xposition Yposition Zposition Xrotation Yrotation Zrotation
		JOINT mixamorig:RightLeg
		{
			OFFSET -0.000002 -44.370117 0.345942
			CHANNELS 6 Xposition Yposition Zposition Xrotation Yrotation Zrotation
			JOINT mixamorig:RightFoot
			{
				OFFSET 0.000003 -44.423679 -3.043532
				CHANNELS 6 Xposition Yposition Zposition Xrotation Yrotation Zrotation
				JOINT mixamorig:RightToeBase
				{
					OFFSET -0.000002 -8.728671 10.710558
					CHANNELS 6 Xposition Yposition Zposition Xrotation Yrotation Zrotation
					JOINT mixamorig:RightToe_End
					{
						OFFSET -0.000001 -0.000679 9.278119
						CHANNELS 6 Xposition Yposition Zposition Xrotation Yrotation Zrotation
						End Site
						{
							OFFSET 0.000000 -0.067690 927.812134
						}
					}
				}
			}
		}
	}
	JOINT mixamorig:LeftUpLeg
	{
		OFFSET 8.207793 -6.751686 -1.599556
		CHANNELS 6 Xposition Yposition Zposition Xrotation Yrotation Zrotation
		JOINT mixamorig:LeftLeg
		{
			OFFSET -0.000004 -44.370014 0.346954
			CHANNELS 6 Xposition Yposition Zposition Xrotation Yrotation Zrotation
			JOINT mixamorig:LeftFoot
			{
				OFFSET -0.000001 -44.423672 -3.044401
				CHANNELS 6 Xposition Yposition Zposition Xrotation Yrotation Zrotation
				JOINT mixamorig:LeftToeBase
				{
					OFFSET -0.000002 -8.728669 10.710558
					CHANNELS 6 Xposition Yposition Zposition Xrotation Yrotation Zrotation
					JOINT mixamorig:LeftToe_End
					{
						OFFSET -0.000003 -0.000679 9.278133
						CHANNELS 6 Xposition Yposition Zposition Xrotation Yrotation Zrotation
						End Site
						{
							OFFSET 0.000000 -0.068021 927.813477
						}
					}
				}
			}
		}
	}
}
MOTION
Frames: 3
Frame Time: 0.033333
0.000006 104.270477 1.554256 0.000010 0.000003 -0.000113 -0.000005 10.181587 0.131522 0.000001 -0.000003 0.000084 -0.000000 9.893967 -1.470711 0.000001 0.000000 -0.000000 -0.000000 9.220802 -1.370642 0.000000 -0.000000 -0.000000 0.000001 16.740433 -2.049030 0.000000 -0.000000 -0.000000 0.000000 9.617859 1.685014 0.000000 0.000000 0.000000 0.000002 22.037384 7.501101 0.000000 -0.000000 0.000000 -4.569968 11.014880 -2.160881 0.000008 0.000001 -0.000038 -10.592872 -0.524767 -2.231891 76.346072 31.534000 -25.030318 -27.841511 0.000010 0.000556 -48.123047 108.009907 63.157038 -28.328812 0.000023 0.000026 -0.000321 -0.000042 0.000003 -2.464413 -1.573820 2.682361 -43.745343 -162.776904 0.538037 -3.215284 -1.872626 1.924675 157.106003 29.637127 -8.765889 -2.654931 -1.527903 1.513086 146.069551 26.833769 -40.238120 -2.018841 -1.152014 1.108073 -0.000003 0.000002 0.000002 -9.108393 -0.517582 2.260182 107.029016 19.587830 -26.340288 -3.700075 0.000307 0.001535 98.685455 15.932579 -18.481008 -2.850084 0.000372 -0.000254 99.041144 11.748549 -13.746796 -2.772187 -0.000000 -0.000020 0.000000 -0.000002 -0.000003 -9.532608 0.000236 0.000322 105.055556 22.261659 -28.983300 -3.700073 0.000303 0.004021 103.511742 15.322148 -19.246507 -2.950060 0.000332 -0.001752 105.284374 12.704596 -16.584446 -2.946648 0.000001 -0.000157 0.000001 0.000001 -0.000003 -9.103718 -0.042814 -1.864799 103.877410 23.930017 -30.228973 -3.379340 0.000285 -0.000753 105.102022 13.024973 -16.978105 -2.889767 0.000332 0.000704 110.031240 7.651786 -10.983256 -2.638798 -0.000019 0.000938 0.000003 0.000001 0.000001 -8.076777 -0.486434 -3.805949 99.154321 25.799373 -29.914169 -3.600085 0.000261 -0.003419 103.251375 14.525512 -17.806551 -2.100012 0.000296 -0.005414 106.494076 7.858714 -10.206878 -2.115772 -0.000054 -0.003679 0.000000 -0.000001 -0.000004 4.570446 11.014691 -2.160851 -0.000018 0.000010 -0.000021 10.592428 -0.524457 -2.232389 74.227409 -22.507326 17.124553 27.841829 0.000054 -0.000178 106.494903 -73.101787 89.579113 28.328844 -0.000028 0.000014 0.000026 -0.000090 0.000001 2.465979 -1.576146 2.681900 -40.873160 159.675876 -5.991247 3.217794 -1.871717 1.916355 153.919365 -31.305612 -2.492055 2.656099 -1.528639 1.514450 138.381764 -28.354234 42.230083 2.020888 -1.154069 1.115150 0.000002 0.000003 0.000001 9.109373 -0.517853 2.259740 86.523798 -14.187397 13.348053 3.700039 0.000140 -0.000476 80.616873 -13.995092 11.903373 2.850044 0.000183 0.000218 80.274462 -12.526123 10.572941 2.774896 -0.000015 -0.000028 0.000003 -0.000001 -0.000000 9.533463 0.000213 -0.000102 86.976134 -12.683818 12.028265 3.700039 0.000177 -0.000394 86.115257 -12.954581 12.108731 2.950071 0.000171 -0.000208 86.946771 -17.505053 16.612173 2.952866 -0.000014 0.000062 0.000002 0.000000 -0.000000 9.104583 -0.042844 -1.865219 86.612345 -12.532348 11.819456 3.150032 0.000217 -0.000103 91.351308 -11.089312 11.354116 2.950026 0.000180 -0.000068 93.513568 -14.215889 15.107361 2.644325 0.000016 0.000059 0.000005 0.000000 0.000000 8.077837 -0.486724 -3.806415 74.387727 -14.096593 11.160434 3.600005 0.000175 0.014549 77.319592 -10.068275 8.456903 2.100048 0.000186 0.007548 81.913427 -10.702992 9.709782 2.125488 0.000000 0.007514 0.000000 0.000001 0.000000 -8.207786 -6.751667 -1.599560 -0.077001 -0.000003 0.000080 -0.000002 -44.370110 0.345938 0.153719 -0.000000 -0.000000 0.000000 -44.423679 -3.043532 -0.076700 0.000000 -0.000002 -0.000006 -8.728667 10.710559 -0.000009 -0.000000 -0.000000 -0.000001 -0.000679 9.278123 0.000000 -0.000000 -0.000000 8.207792 -6.751710 -1.599556 -0.074518 -0.000003 0.000081 -0.000002 -44.370014 0.346960 0.148822 0.000002 0.000000 -0.000001 -44.423664 -3.044403 -0.074314 0.000000 -0.000002 -0.000004 -8.728671 10.710558 0.000007 -0.000000 -0.000000 0.000000 -0.000680 9.278137 -0.000000 0.000000 -0.000001 
0.000006 104.270477 1.554256 0.000010 0.000003 -0.000113 -0.000005 10.181587 0.131522 0.000001 -0.000003 0.000084 -0.000000 9.893967 -1.470711 0.000001 0.000000 -0.000000 -0.000000 9.220802 -1.370642 0.000000 -0.000000 -0.000000 0.000001 16.740433 -2.049030 0.000000 -0.000000 -0.000000 0.000000 9.617859 1.685014 0.000000 0.000000 0.000000 0.000002 22.037384 7.501101 0.000000 -0.000000 0.000000 -4.569968 11.014880 -2.160881 0.000008 0.000001 -0.000038 -10.592873 -0.524782 -2.231881 77.140566 33.382584 -26.895210 -27.841511 0.000013 0.000533 -47.487597 105.873861 60.433616 -28.328810 0.000005 0.000028 -0.000324 -0.000046 0.000005 -2.464405 -1.573797 2.682326 -46.005163 -160.659409 -5.518337 -3.215285 -1.872590 1.924663 155.462974 30.472527 -3.533528 -2.654960 -1.527873 1.513083 146.373112 26.811173 -39.739478 -2.018846 -1.152010 1.108058 -0.000004 -0.000002 0.000004 -9.108382 -0.517567 2.260170 106.400202 15.985593 -21.322664 -3.700049 0.000314 0.001540 102.562073 11.826114 -14.693661 -2.850091 0.000378 -0.000238 101.194061 8.986967 -10.927877 -2.772178 -0.000014 -0.000015 -0.000000 -0.000001 -0.000000 -9.532593 0.000271 0.000306 103.996809 16.517791 -21.230236 -3.700051 0.000331 0.004032 106.193910 10.205250 -13.439653 -2.950035 0.000341 -0.001735 108.036606 9.859657 -13.540292 -2.946628 0.000001 -0.000160 -0.000000 -0.000000 -0.000002 -9.103696 -0.042760 -1.864827 102.242802 18.608246 -22.915729 -3.379333 0.000326 -0.000762 106.272020 7.843609 -10.470347 -2.889758 0.000350 0.000705 114.089390 6.042158 -9.377880 -2.638793 -0.000017 0.000943 0.000000 0.000003 -0.000001 -8.076775 -0.486423 -3.805963 98.290384 22.510941 -25.737587 -3.600054 0.000259 -0.003447 102.215413 9.688936 -11.548998 -2.100031 0.000307 -0.005399 107.274391 5.699437 -7.437010 -2.115781 -0.000066 -0.003677 -0.000000 -0.000003 -0.000004 4.570446 11.014691 -2.160851 -0.000018 0.000010 -0.000021 10.592395 -0.524478 -2.232348 73.749801 -10.438863 7.840144 27.841833 0.000054 -0.000223 107.404834 -72.761425 90.174309 28.328825 -0.000029 0.000024 0.000022 -0.000088 -0.000000 2.466075 -1.576160 2.681911 -29.145974 158.174122 -31.186555 3.217815 -1.871763 1.916380 160.526521 -29.989926 7.555429 2.656081 -1.528656 1.514460 138.564458 -28.020112 52.005200 2.020906 -1.154081 1.115146 -0.000003 0.000008 0.000006 9.109379 -0.517855 2.259728 85.907162 -17.728308 16.510826 3.700030 0.000176 -0.000459 82.540876 -11.710920 10.300491 2.850039 0.000198 0.000189 82.444113 -9.347405 8.192515 2.774872 -0.000046 -0.000026 -0.000000 0.000003 -0.000000 9.533484 0.000210 -0.000098 86.949374 -17.540696 16.635329 3.700047 0.000202 -0.000377 88.570656 -10.749827 10.483876 2.950050 0.000187 -0.000206 89.724165 -11.937267 11.883248 2.952873 -0.000032 0.000063 -0.000001 -0.000001 0.000000 9.104599 -0.042840 -1.865208 86.893448 -17.171189 16.278876 3.150048 0.000213 -0.000093 92.651304 -10.315211 10.802968 2.950016 0.000193 -0.000080 94.270168 -10.260374 11.052163 2.644324 0.000045 0.000059 -0.000002 -0.000000 0.000000 8.077852 -0.486722 -3.806394 77.798341 -18.402196 15.380524 3.600001 0.000203 0.014573 81.051171 -14.249689 12.640465 2.100058 0.000197 0.007537 83.853345 -11.379671 10.657205 2.125507 -0.000016 0.007517 -0.000000 -0.000003 -0.000001 -8.207786 -6.751667 -1.599560 -0.077001 -0.000003 0.000080 -0.000002 -44.370110 0.345938 0.153719 -0.000000 -0.000000 0.000000 -44.423679 -3.043532 -0.076700 0.000000 -0.000002 -0.000006 -8.728667 10.710559 -0.000009 -0.000000 -0.000000 -0.000001 -0.000679 9.278123 0.000000 -0.000000 -0.000000 8.207792 -6.751710 -1.599556 -0.074518 -0.000003 0.000081 -0.000002 -44.370014 0.346960 0.148822 0.000002 0.000000 -0.000001 -44.423664 -3.044403 -0.074314 0.000000 -0.000002 -0.000004 -8.728671 10.710558 0.000007 -0.000000 -0.000000 0.000000 -0.000680 9.278137 -0.000000 0.000000 -0.000001 
0.000006 104.270477 1.554256 0.000010 0.000003 -0.000113 -0.000005 10.181587 0.131522 0.000001 -0.000003 0.000084 -0.000000 9.893967 -1.470711 0.000001 0.000000 -0.000000 -0.000000 9.220802 -1.370642 0.000000 -0.000000 -0.000000 0.000001 16.740433 -2.049030 0.000000 -0.000000 -0.000000 0.000000 9.617859 1.685014 0.000000 0.000000 0.000000 0.000002 22.037384 7.501101 0.000000 -0.000000 0.000000 -4.569968 11.014880 -2.160881 0.000008 0.000001 -0.000038 -10.592861 -0.524791 -2.231862 77.250724 38.995237 -31.593337 -27.841530 0.000011 0.000555 -46.965675 103.391463 57.624380 -28.328823 0.000022 0.000026 -0.000318 -0.000045 0.000011 -2.464392 -1.573811 2.682321 -45.823445 -160.528748 -5.094475 -3.215283 -1.872615 1.924667 155.678985 30.318971 -4.522912 -2.654954 -1.527876 1.513096 146.088184 26.842731 -40.090854 -2.018838 -1.151999 1.108076 -0.000004 -0.000000 0.000003 -9.108361 -0.517560 2.260155 106.504315 16.239514 -21.697151 -3.700065 0.000321 0.001523 102.377931 11.980574 -14.836762 -2.850092 0.000383 -0.000232 100.935477 9.077146 -10.986999 -2.772159 -0.000016 -0.000019 -0.000000 -0.000001 -0.000002 -9.532580 0.000254 0.000290 103.950821 16.654815 -21.386214 -3.700067 0.000327 0.004046 105.958623 10.166250 -13.331532 -2.950063 0.000350 -0.001735 108.049631 9.923221 -13.630471 -2.946625 0.000001 -0.000159 0.000000 0.000003 0.000000 -9.103676 -0.042771 -1.864805 102.109470 18.744042 -23.028324 -3.379331 0.000312 -0.000745 106.013504 7.689100 -10.217126 -2.889740 0.000339 0.000713 113.992203 5.972995 -9.254397 -2.638817 0.000014 0.000942 -0.000000 0.000002 0.000000 -8.076747 -0.486417 -3.805971 98.000804 22.790683 -25.928411 -3.600041 0.000275 -0.003450 102.354298 9.612833 -11.483647 -2.100017 0.000320 -0.005409 107.213158 5.680505 -7.403155 -2.115781 -0.000038 -0.003681 0.000001 -0.000001 -0.000001 4.570446 11.014691 -2.160851 -0.000018 0.000010 -0.000021 10.592442 -0.524467 -2.232380 73.212982 -27.026872 20.244261 27.841827 0.000030 -0.000190 109.511141 -74.867787 94.583544 28.328823 -0.000028 0.000018 0.000018 -0.000090 0.000001 2.466064 -1.576180 2.681913 -27.778262 158.256822 -34.055876 3.217826 -1.871768 1.916379 161.111814 -28.647338 13.897310 2.656102 -1.528645 1.514475 138.767792 -27.956699 51.957775 2.020887 -1.154070 1.115151 0.000003 0.000003 0.000001 9.109368 -0.517868 2.259740 85.772655 -18.741660 17.416916 3.700050 0.000148 -0.000461 83.305768 -12.145778 10.826987 2.850058 0.000193 0.000197 83.890050 -9.436958 8.483247 2.774887 -0.000030 -0.000029 0.000001 -0.000002 0.000000 9.533457 0.000207 -0.000095 86.929737 -18.570617 17.608223 3.700033 0.000181 -0.000378 88.577274 -10.909458 10.640864 2.950048 0.000181 -0.000207 89.658848 -11.776470 11.709937 2.952883 -0.000016 0.000066 0.000003 0.000000 -0.000001 9.104592 -0.042857 -1.865219 87.019472 -18.218584 17.310920 3.150037 0.000212 -0.000097 92.594388 -10.696857 11.191323 2.950022 0.000202 -0.000080 93.846492 -10.066650 10.764078 2.644312 0.000031 0.000059 -0.000003 -0.000000 -0.000001 8.077830 -0.486727 -3.806401 78.339094 -19.301942 16.271532 3.599993 0.000172 0.014572 81.148330 -15.055059 13.358518 2.100040 0.000191 0.007556 83.483742 -11.679741 10.858525 2.125495 -0.000028 0.007516 0.000004 0.000001 0.000000 -8.207786 -6.751667 -1.599560 -0.077001 -0.000003 0.000080 -0.000002 -44.370110 0.345938 0.153719 -0.000000 -0.000000 0.000000 -44.423679 -3.043532 -0.076700 0.000000 -0.000002 -0.000006 -8.728667 10.710559 -0.000009 -0.000000 -0.000000 -0.000001 -0.000679 9.278123 0.000000 -0.000000 -0.000000 8.207792 -6.751710 -1.599556 -0.074518 -0.000003 0.000081 -0.000002 -44.370014 0.346960 0.148822 0.000002 0.000000 -0.000001 -44.423664 -3.044403 -0.074314 0.000000 -0.000002 -0.000004 -8.728671 10.710558 0.000007 -0.000000 -0.000000 0.000000 -0.000680 9.278137 -0.000000 0.000000 -0.000001 
